# xmcd CD database file
#
# Track frame offsets:
#	150
#	23735
#	43107
#	68550
#	75185
#	91971
#	113454
#
# Disc length: 1937 seconds
#
# Revision: 0
# Processed by: cddbd v1.5.1PL2 Copyright (c) Steve Scherf et al.
# Submitted via: CDex 1.51
#
DISCID=41078f07
DTITLE=cutman-booche - clisco line
DYEAR=2005
DGENRE=Blues
TTITLE0=the silo
TTITLE1=four-leaf clover
TTITLE2=garden bird
TTITLE3=safaric cello town
TTITLE4=sister
TTITLE5=beyond words
TTITLE6=時つ唄（トキツウタ）
EXTD=YEAR: 2005
EXTT0=
EXTT1=
EXTT2=
EXTT3=
EXTT4=
EXTT5=
EXTT6=
PLAYORDER=
